<mxfile host="app.diagrams.net" modified="2024-04-23T18:09:58.787Z" agent="Mozilla/5.0 (Macintosh; Intel Mac OS X 10.15; rv:124.0) Gecko/20100101 Firefox/124.0" version="24.2.8" etag="ztE7FveqWJDEifZTvk15" type="github">
  <diagram name="Page-1" id="2eDNATggG_CqtzDta3Rx">
    <mxGraphModel>
      <root>
        <mxCell id="0" />
        <mxCell id="1" parent="0" />
      </root>
    </mxGraphModel>
  </diagram>
</mxfile>
